# xmcd
#
# Track frame offsets: 
#        150
#        11965
#        24111
#        34607
#        44700
#        55382
#        68755
#        78973
#        94790
#
# Disc length: 1387 seconds
#
# Revision: 3
# Processed by: cddbd v1.5.2PL0 Copyright (c) Steve Scherf et al.
# Submitted via: ExactAudioCopyFreeDBPlugin 1.0
#
DISCID=6c056909
DTITLE=Percy Sledge - Percy Sledge Sings Country
DYEAR=1979
DGENRE=Country
TTITLE0=Today I Started Loving You Again
TTITLE1=He´ll Have to Go
TTITLE2=Mama Tried
TTITLE3=Kiss an Angel Good Morning
TTITLE4=Hey Good Lookin´
TTITLE5=I Still Miss Someone
TTITLE6=Wabash Canonball
TTITLE7=Just Out of Reach
TTITLE8=If You´ve Got the Money I´ve Got the Time
EXTD=
EXTT0=
EXTT1=
EXTT2=
EXTT3=
EXTT4=
EXTT5=
EXTT6=
EXTT7=
EXTT8=
PLAYORDER=
